<svg width="140" height="53" viewBox="0 0 140 53" fill="none" xmlns="http://www.w3.org/2000/svg">
<mask id="mask0_199_361" style="mask-type:alpha" maskUnits="userSpaceOnUse" x="70" y="2" width="50" height="50">
<circle cx="95" cy="27" r="25" fill="url(#paint0_radial_199_361)"/>
</mask>
<g mask="url(#mask0_199_361)">
<path fill-rule="evenodd" clip-rule="evenodd" d="M91.5 49.25C105.307 49.25 116.5 38.0571 116.5 24.25C116.5 17.0683 113.472 10.594 108.623 6.03405C115.472 10.4934 120 18.2179 120 27C120 40.8071 108.807 52 95 52C88.3745 52 82.3511 49.4227 77.8774 45.216C81.7963 47.7675 86.475 49.25 91.5 49.25Z" fill="#7191A8"/>
</g>
<path d="M44.125 24.2734V26.1133H34.8906V24.2734H44.125ZM35.2422 16.9375V34H32.9805V16.9375H35.2422ZM46.0938 16.9375V34H43.8438V16.9375H46.0938ZM57.2617 31.832V25.3047C57.2617 24.8047 57.1602 24.3711 56.957 24.0039C56.7617 23.6289 56.4648 23.3398 56.0664 23.1367C55.668 22.9336 55.1758 22.832 54.5898 22.832C54.043 22.832 53.5625 22.9258 53.1484 23.1133C52.7422 23.3008 52.4219 23.5469 52.1875 23.8516C51.9609 24.1562 51.8477 24.4844 51.8477 24.8359H49.6797C49.6797 24.3828 49.7969 23.9336 50.0312 23.4883C50.2656 23.043 50.6016 22.6406 51.0391 22.2812C51.4844 21.9141 52.0156 21.625 52.6328 21.4141C53.2578 21.1953 53.9531 21.0859 54.7188 21.0859C55.6406 21.0859 56.4531 21.2422 57.1562 21.5547C57.8672 21.8672 58.4219 22.3398 58.8203 22.9727C59.2266 23.5977 59.4297 24.3828 59.4297 25.3281V31.2344C59.4297 31.6562 59.4648 32.1055 59.5352 32.582C59.6133 33.0586 59.7266 33.4688 59.875 33.8125V34H57.6133C57.5039 33.75 57.418 33.418 57.3555 33.0039C57.293 32.582 57.2617 32.1914 57.2617 31.832ZM57.6367 26.3125L57.6602 27.8359H55.4688C54.8516 27.8359 54.3008 27.8867 53.8164 27.9883C53.332 28.082 52.9258 28.2266 52.5977 28.4219C52.2695 28.6172 52.0195 28.8633 51.8477 29.1602C51.6758 29.4492 51.5898 29.7891 51.5898 30.1797C51.5898 30.5781 51.6797 30.9414 51.8594 31.2695C52.0391 31.5977 52.3086 31.8594 52.668 32.0547C53.0352 32.2422 53.4844 32.3359 54.0156 32.3359C54.6797 32.3359 55.2656 32.1953 55.7734 31.9141C56.2812 31.6328 56.6836 31.2891 56.9805 30.8828C57.2852 30.4766 57.4492 30.082 57.4727 29.6992L58.3984 30.7422C58.3438 31.0703 58.1953 31.4336 57.9531 31.832C57.7109 32.2305 57.3867 32.6133 56.9805 32.9805C56.582 33.3398 56.1055 33.6406 55.5508 33.8828C55.0039 34.1172 54.3867 34.2344 53.6992 34.2344C52.8398 34.2344 52.0859 34.0664 51.4375 33.7305C50.7969 33.3945 50.2969 32.9453 49.9375 32.3828C49.5859 31.8125 49.4102 31.1758 49.4102 30.4727C49.4102 29.793 49.543 29.1953 49.8086 28.6797C50.0742 28.1562 50.457 27.7227 50.957 27.3789C51.457 27.0273 52.0586 26.7617 52.7617 26.582C53.4648 26.4023 54.25 26.3125 55.1172 26.3125H57.6367ZM65.0078 23.3125V34H62.8398V21.3203H64.9492L65.0078 23.3125ZM68.9688 21.25L68.957 23.2656C68.7773 23.2266 68.6055 23.2031 68.4414 23.1953C68.2852 23.1797 68.1055 23.1719 67.9023 23.1719C67.4023 23.1719 66.9609 23.25 66.5781 23.4062C66.1953 23.5625 65.8711 23.7812 65.6055 24.0625C65.3398 24.3438 65.1289 24.6797 64.9727 25.0703C64.8242 25.4531 64.7266 25.875 64.6797 26.3359L64.0703 26.6875C64.0703 25.9219 64.1445 25.2031 64.293 24.5312C64.4492 23.8594 64.6875 23.2656 65.0078 22.75C65.3281 22.2266 65.7344 21.8203 66.2266 21.5312C66.7266 21.2344 67.3203 21.0859 68.0078 21.0859C68.1641 21.0859 68.3438 21.1055 68.5469 21.1445C68.75 21.1758 68.8906 21.2109 68.9688 21.25ZM70.9609 16H73.1406V31.5391L72.9531 34H70.9609V16ZM81.707 27.5547V27.8008C81.707 28.7227 81.5977 29.5781 81.3789 30.3672C81.1602 31.1484 80.8398 31.8281 80.418 32.4062C79.9961 32.9844 79.4805 33.4336 78.8711 33.7539C78.2617 34.0742 77.5625 34.2344 76.7734 34.2344C75.9688 34.2344 75.2617 34.0977 74.6523 33.8242C74.0508 33.543 73.543 33.1406 73.1289 32.6172C72.7148 32.0938 72.3828 31.4609 72.1328 30.7188C71.8906 29.9766 71.7227 29.1406 71.6289 28.2109V27.1328C71.7227 26.1953 71.8906 25.3555 72.1328 24.6133C72.3828 23.8711 72.7148 23.2383 73.1289 22.7148C73.543 22.1836 74.0508 21.7812 74.6523 21.5078C75.2539 21.2266 75.9531 21.0859 76.75 21.0859C77.5469 21.0859 78.2539 21.2422 78.8711 21.5547C79.4883 21.8594 80.0039 22.2969 80.418 22.8672C80.8398 23.4375 81.1602 24.1211 81.3789 24.918C81.5977 25.707 81.707 26.5859 81.707 27.5547ZM79.5273 27.8008V27.5547C79.5273 26.9219 79.4688 26.3281 79.3516 25.7734C79.2344 25.2109 79.0469 24.7188 78.7891 24.2969C78.5312 23.8672 78.1914 23.5312 77.7695 23.2891C77.3477 23.0391 76.8281 22.9141 76.2109 22.9141C75.6641 22.9141 75.1875 23.0078 74.7812 23.1953C74.3828 23.3828 74.043 23.6367 73.7617 23.957C73.4805 24.2695 73.25 24.6289 73.0703 25.0352C72.8984 25.4336 72.7695 25.8477 72.6836 26.2773V29.1016C72.8086 29.6484 73.0117 30.1758 73.293 30.6836C73.582 31.1836 73.9648 31.5938 74.4414 31.9141C74.9258 32.2344 75.5234 32.3945 76.2344 32.3945C76.8203 32.3945 77.3203 32.2773 77.7344 32.043C78.1562 31.8008 78.4961 31.4688 78.7539 31.0469C79.0195 30.625 79.2148 30.1367 79.3398 29.582C79.4648 29.0273 79.5273 28.4336 79.5273 27.8008ZM83.875 27.8008V27.5312C83.875 26.6172 84.0078 25.7695 84.2734 24.9883C84.5391 24.1992 84.9219 23.5156 85.4219 22.9375C85.9219 22.3516 86.5273 21.8984 87.2383 21.5781C87.9492 21.25 88.7461 21.0859 89.6289 21.0859C90.5195 21.0859 91.3203 21.25 92.0312 21.5781C92.75 21.8984 93.3594 22.3516 93.8594 22.9375C94.3672 23.5156 94.7539 24.1992 95.0195 24.9883C95.2852 25.7695 95.418 26.6172 95.418 27.5312V27.8008C95.418 28.7148 95.2852 29.5625 95.0195 30.3438C94.7539 31.125 94.3672 31.8086 93.8594 32.3945C93.3594 32.9727 92.7539 33.4258 92.043 33.7539C91.3398 34.0742 90.543 34.2344 89.6523 34.2344C88.7617 34.2344 87.9609 34.0742 87.25 33.7539C86.5391 33.4258 85.9297 32.9727 85.4219 32.3945C84.9219 31.8086 84.5391 31.125 84.2734 30.3438C84.0078 29.5625 83.875 28.7148 83.875 27.8008ZM86.043 27.5312V27.8008C86.043 28.4336 86.1172 29.0312 86.2656 29.5938C86.4141 30.1484 86.6367 30.6406 86.9336 31.0703C87.2383 31.5 87.6172 31.8398 88.0703 32.0898C88.5234 32.332 89.0508 32.4531 89.6523 32.4531C90.2461 32.4531 90.7656 32.332 91.2109 32.0898C91.6641 31.8398 92.0391 31.5 92.3359 31.0703C92.6328 30.6406 92.8555 30.1484 93.0039 29.5938C93.1602 29.0312 93.2383 28.4336 93.2383 27.8008V27.5312C93.2383 26.9062 93.1602 26.3164 93.0039 25.7617C92.8555 25.1992 92.6289 24.7031 92.3242 24.2734C92.0273 23.8359 91.6523 23.4922 91.1992 23.2422C90.7539 22.9922 90.2305 22.8672 89.6289 22.8672C89.0352 22.8672 88.5117 22.9922 88.0586 23.2422C87.6133 23.4922 87.2383 23.8359 86.9336 24.2734C86.6367 24.7031 86.4141 25.1992 86.2656 25.7617C86.1172 26.3164 86.043 26.9062 86.043 27.5312ZM100.305 23.3125V34H98.1367V21.3203H100.246L100.305 23.3125ZM104.266 21.25L104.254 23.2656C104.074 23.2266 103.902 23.2031 103.738 23.1953C103.582 23.1797 103.402 23.1719 103.199 23.1719C102.699 23.1719 102.258 23.25 101.875 23.4062C101.492 23.5625 101.168 23.7812 100.902 24.0625C100.637 24.3438 100.426 24.6797 100.27 25.0703C100.121 25.4531 100.023 25.875 99.9766 26.3359L99.3672 26.6875C99.3672 25.9219 99.4414 25.2031 99.5898 24.5312C99.7461 23.8594 99.9844 23.2656 100.305 22.75C100.625 22.2266 101.031 21.8203 101.523 21.5312C102.023 21.2344 102.617 21.0859 103.305 21.0859C103.461 21.0859 103.641 21.1055 103.844 21.1445C104.047 21.1758 104.188 21.2109 104.266 21.25Z" fill="#617B8E"/>
<defs>
<radialGradient id="paint0_radial_199_361" cx="0" cy="0" r="1" gradientUnits="userSpaceOnUse" gradientTransform="translate(118 45.375) rotate(-138.257) scale(54.4468)">
<stop/>
<stop offset="1" stop-color="#DDCDCD" stop-opacity="0"/>
</radialGradient>
</defs>
</svg>
